<?xml version="1.0" encoding="UTF-8"?><svg id="_レイヤー_2" xmlns="http://www.w3.org/2000/svg" viewBox="0 0 24.04 27.25"><defs><style>.cls-1{fill:#fff;}</style></defs><g id="_レイヤー_1-2"><path class="cls-1" d="m7.33,12.38c.06-1.75.16-3.46.31-5.21-1.59.09-3.06.16-4.33.16-.69,0-1.03-.53-1.03-1.09,0-.53.34-1.09,1.12-1.09,1.28,0,2.84-.06,4.46-.16.12-1.28.31-2.62.5-3.99.09-.69.59-1,1.12-1,.56,0,1.15.41,1.15,1.06,0,.09-.03.16-.03.22-.19,1.25-.34,2.43-.5,3.55,2.34-.19,4.71-.47,6.76-.81.06,0,.16-.03.22-.03.72,0,1.12.56,1.12,1.09,0,.5-.31.97-1,1.09-2.18.34-4.8.65-7.36.84-.16,1.53-.25,3.06-.34,4.58,1.59-.47,3.27-.69,4.96-.72.12-.5.28-1.03.41-1.56.16-.62.62-.9,1.09-.9.56,0,1.15.41,1.15,1.12,0,.12-.03.25-.06.37-.09.37-.19.75-.31,1.12,4.27.69,7.29,3.71,7.29,7.58,0,4.15-3.06,7.45-7.76,8.57-.16.03-.31.06-.44.06-.78,0-1.25-.59-1.25-1.18,0-.5.34-1,1.09-1.18,3.87-.94,5.92-3.24,5.92-6.23,0-2.84-2-5.27-5.42-5.8-1.28,3.52-3.18,6.86-5.99,9.41.12.53.22,1.06.34,1.56.03.16.06.31.06.44,0,.81-.56,1.31-1.09,1.31-.44,0-.84-.31-1.03-.97-.09-.37-.19-.78-.28-1.18-1.47,1.06-3.06,1.5-4.49,1.5-2.24,0-3.71-1.34-3.71-3.87s2.03-6.3,7.33-8.67Zm-3.49,10.35c1.18.03,2.49-.47,3.96-1.56-.34-2.28-.5-4.68-.5-6.67-3.77,2.03-5.02,4.65-4.99,6.39,0,.97.44,1.84,1.53,1.84Zm10.01-9.98c-1.5.06-2.96.37-4.4.84v.72c0,1.59.12,3.52.37,5.39,1.84-2,3.12-4.43,4.02-6.95Z"/></g></svg>