<?xml version="1.0" encoding="UTF-8"?><svg id="_レイヤー_2" xmlns="http://www.w3.org/2000/svg" viewBox="0 0 51.3 18.21"><g id="_レイヤー_1-2"><g><path d="m5.32,17.92V3.03H0V0h14.24v3.03h-5.3v14.89h-3.62Z"/><path d="m22.49,13.79l3.42.57c-.44,1.25-1.13,2.21-2.08,2.87s-2.14.98-3.56.98c-2.26,0-3.93-.74-5.01-2.21-.86-1.18-1.28-2.67-1.28-4.47,0-2.15.56-3.84,1.69-5.05,1.12-1.22,2.55-1.83,4.27-1.83,1.93,0,3.45.64,4.57,1.91,1.12,1.28,1.65,3.23,1.6,5.86h-8.6c.02,1.02.3,1.81.83,2.38s1.19.85,1.98.85c.54,0,.99-.15,1.36-.44.37-.29.64-.77.83-1.42Zm.2-3.47c-.02-.99-.28-1.75-.77-2.27-.49-.52-1.08-.78-1.78-.78-.75,0-1.37.27-1.86.82s-.73,1.29-.72,2.22h5.13Z"/><path d="m28.17,17.92l4.68-6.69-4.49-6.29h4.19l2.3,3.57,2.42-3.57h4.03l-4.4,6.15,4.8,6.83h-4.22l-2.64-4.02-2.66,4.02h-4.02Z"/><path d="m51.02,4.94v2.74h-2.35v5.23c0,1.06.02,1.68.07,1.85s.15.32.31.43c.16.11.35.17.58.17.32,0,.78-.11,1.38-.33l.29,2.66c-.8.34-1.7.51-2.71.51-.62,0-1.18-.1-1.67-.31-.5-.21-.86-.48-1.09-.81-.23-.33-.39-.78-.48-1.34-.07-.4-.11-1.21-.11-2.42v-5.66h-1.58v-2.74h1.58v-2.58l3.45-2v4.58h2.35Z"/></g></g></svg>